<svg xmlns:dc="http://purl.org/dc/elements/1.1/" xmlns:cc="http://creativecommons.org/ns#" xmlns:rdf="http://www.w3.org/1999/02/22-rdf-syntax-ns#" xmlns:svg="http://www.w3.org/2000/svg" xmlns="http://www.w3.org/2000/svg" xmlns:sodipodi="http://sodipodi.sourceforge.net/DTD/sodipodi-0.dtd" xmlns:inkscape="http://www.inkscape.org/namespaces/inkscape" version="1.1" x="0px" y="0px" viewBox="0 0 100 125"><g transform="translate(0,-952.36218)"><path style="font-size:medium;font-style:normal;font-variant:normal;font-weight:normal;font-stretch:normal;text-indent:0;text-align:start;text-decoration:none;line-height:normal;letter-spacing:normal;word-spacing:normal;text-transform:none;direction:ltr;block-progression:tb;writing-mode:lr-tb;text-anchor:start;baseline-shift:baseline;opacity:1;color:#000000;fill:#000000;fill-opacity:1;stroke:none;stroke-width:4.64285706999999980;marker:none;visibility:visible;display:inline;overflow:visible;enable-background:accumulate;font-family:Sans;-inkscape-font-specification:Sans" d="M 50 5 C 25.18272 5 5 25.1827 5 50 C 5 74.8173 25.18272 95 50 95 C 66.210032 95 80.636766 86.51655 88.5625 73.59375 A 3.0094672 3.0094672 0 0 0 83.4375 70.4375 C 76.593858 81.596 64.109944 89 50 89 C 28.42536 89 11 71.5746 11 50 C 11 28.42534 28.42536 11 50 11 C 62.966324 11 74.436384 17.325281 81.53125 27.03125 L 74.8125 25.09375 A 3.0026437 3.0026437 0 1 0 73.1875 30.875 L 87.1875 34.875 A 3.0003 3.0003 0 0 0 90.875 32.8125 L 94.875 18.8125 A 3.0003 3.0003 0 0 0 91.90625 14.9375 A 3.0003 3.0003 0 0 0 89.125 17.15625 L 87.0625 24.375 C 78.922946 12.654543 65.320316 5 50 5 z M 49.96875 18.9375 A 3.0003 3.0003 0 0 0 47 22 L 47 50 A 3.0003 3.0003 0 0 0 48.65625 52.65625 L 68.65625 62.65625 A 3.0003 3.0003 0 1 0 71.34375 57.3125 L 53 48.125 L 53 22 A 3.0003 3.0003 0 0 0 49.96875 18.9375 z " transform="translate(0,952.36218)"/></g><text x="0" y="115" fill="#000000" font-size="5px" font-weight="bold" font-family="'Helvetica Neue', Helvetica, Arial-Unicode, Arial, Sans-serif">Created by hans draiman</text><text x="0" y="120" fill="#000000" font-size="5px" font-weight="bold" font-family="'Helvetica Neue', Helvetica, Arial-Unicode, Arial, Sans-serif">from the Noun Project</text></svg>